<svg id="layer_1" data-name="layer 1" xmlns="http://www.w3.org/2000/svg" viewBox="0 0 176.95 176.24"><defs><style>.cls-1{fill:#00a99d;}</style></defs><title>logo1</title><path class="cls-1" d="M619.31,445a71.82,71.82,0,0,0,15.08,11.64,69,69,0,0,0,14.16,6.2,61.25,61.25,0,0,0,16.56,2.79l4.33.1c.3,0,4.27-.31,5.31-.38,1.54-.09,3.07-.32,4.61-.51.23,0,14.78-2.44,19.42-1.36,6.45,1.52,12.46,4.52,18.58,7.13,6.47,2.75,13,5.15,20,5.56a37.74,37.74,0,0,0,18.15-3.58,67.74,67.74,0,0,0,15.25-10.2c.45-.38,1-.64,0-1.14a78.15,78.15,0,0,1-9-5.79c-3.71-2.62-7.39-5.29-11-8.09a95,95,0,0,0-7.88-5.81c-4.51-2.79-9.27-4.2-14.43-2.82a27.66,27.66,0,0,0-8.54,4c-1.29.88-2.57,1.78-3.94,2.57.44-.5.86-1,1.33-1.5a35,35,0,0,0,8.6-12.89,31.75,31.75,0,0,0,1.66-14.3c-.55-5.16-2.14-10.06-3-15.14-.12-.7-.33-1.4-.38-2.11-.08-.9-.36-.71-.85-.36a17.25,17.25,0,0,0-3.45,3.53c-3.16,4.13-5.22,9-7.13,13.93-2.29,6-4.09,12.14-6.52,18-.4,1-2.65,4.67-3.25,5.61a30.17,30.17,0,0,1-8.86,9.09,20.88,20.88,0,0,1-16,3.44,18.56,18.56,0,0,1-12.73-9.37,24.55,24.55,0,0,1-3.45-14,25.47,25.47,0,0,1,5-13.94,31.41,31.41,0,0,1,13.13-10.1c.42-.18,6.31-2.12,8.89-2.74,3.47-.84,6.91-1.86,10.35-2.88,6.48-1.91,12.91-4.08,18.87-7.59a38.18,38.18,0,0,0,15-15.47,32.56,32.56,0,0,0,3-20.76,55.55,55.55,0,0,0-7.9-20.32,81.86,81.86,0,0,0-13.43-16.71c-5.65-5.37-11.74-10-18.71-12.9-16.88-6.94-54.43-13.41-80.84,16.45-12,13.61-18,34.61-19.49,44a105.86,105.86,0,0,0-1.35,18.9,91.11,91.11,0,0,0,7.88,34.93A82.32,82.32,0,0,0,619.31,445Zm69.18-71.48a7,7,0,0,1,8.72-1.44,4.9,4.9,0,0,1,1.5,6.91,7.19,7.19,0,0,1-8.22,3C686.73,380.55,685.79,376.57,688.49,373.54Z" transform="translate(-594.38 -300.01)"/></svg>
